0
SECTION
2
HEADER
9
$INSUNITS
70
4
9
$ACADVER
1
AC1014
9
$HANDSEED
5
FFFF
0
ENDSEC
0
SECTION
2
TABLES
0
TABLE
2
VPORT
5
8
100
AcDbSymbolTable
0
ENDTAB
0
TABLE
2
LTYPE
5
5
100
AcDbSymbolTable
0
LTYPE
5
14
100
AcDbSymbolTableRecord
100
AcDbLinetypeTableRecord
2
BYBLOCK
70
0
0
LTYPE
5
15
100
AcDbSymbolTableRecord
100
AcDbLinetypeTableRecord
2
BYLAYER
70
0
0
LTYPE
5
16
100
AcDbSymbolTableRecord
100
AcDbLinetypeTableRecord
2
DASHED
70
0
3
Dashed __ __ __ __ __ __ __ __ __ __ __ __ __ _
72
65
73
2
40
0.75
49
0.5
74
0
49
-0.25
74
0
0
ENDTAB
0
TABLE
2
LAYER
5
2
100
AcDbSymbolTable
70
3
0
LAYER
5
50
100
AcDbSymbolTableRecord
100
AcDbLayerTableRecord
2
1
70
0
62
7
6
DASHED
0
LAYER
5
51
100
AcDbSymbolTableRecord
100
AcDbLayerTableRecord
2
0
70
0
62
7
6
CONTINUOUS
0
ENDTAB
0
TABLE
2
STYLE
5
3
100
AcDbSymbolTable
70
1
0
STYLE
5
11
100
AcDbSymbolTableRecord
100
AcDbTextStyleTableRecord
2
STANDARD
70
0
0
ENDTAB
0
TABLE
2
VIEW
5
6
100
AcDbSymbolTable
70
0
0
ENDTAB
0
TABLE
2
UCS
5
7
100
AcDbSymbolTable
70
0
0
ENDTAB
0
TABLE
2
APPID
5
9
100
AcDbSymbolTable
70
2
0
APPID
5
12
100
AcDbSymbolTableRecord
100
AcDbRegAppTableRecord
2
ACAD
70
0
0
ENDTAB
0
TABLE
2
DIMSTYLE
5
A
100
AcDbSymbolTable
70
1
0
ENDTAB
0
TABLE
2
BLOCK_RECORD
5
1
100
AcDbSymbolTable
70
1
0
BLOCK_RECORD
5
1F
100
AcDbSymbolTableRecord
100
AcDbBlockTableRecord
2
*MODEL_SPACE
0
BLOCK_RECORD
5
1B
100
AcDbSymbolTableRecord
100
AcDbBlockTableRecord
2
*PAPER_SPACE
0
ENDTAB
0
ENDSEC
0
SECTION
2
BLOCKS
0
BLOCK
5
20
100
AcDbEntity
100
AcDbBlockBegin
2
*MODEL_SPACE
0
ENDBLK
5
21
100
AcDbEntity
100
AcDbBlockEnd
0
BLOCK
5
1C
100
AcDbEntity
100
AcDbBlockBegin
2
*PAPER_SPACE
0
ENDBLK
5
1D
100
AcDbEntity
100
AcDbBlockEnd
0
ENDSEC
0
SECTION
2
ENTITIES
0
CIRCLE
5
100
100
AcDbEntity
8
0
100
AcDbCircle
10
-145.00000242370675
20
149.99999744050791
30
0
40
6.4999999999999858
210
6.8284581667998455e-33
220
4.9303806576313232e-32
230
1
0
CIRCLE
5
101
100
AcDbEntity
8
0
100
AcDbCircle
10
234.99999757629303
20
-320.00000255949232
30
0
40
6.4999999999999858
210
6.8284581667998455e-33
220
4.9303806576313232e-32
230
1
0
CIRCLE
5
102
100
AcDbEntity
8
0
100
AcDbCircle
10
234.99999757629325
20
149.99999744050774
30
0
40
6.4999999999999858
210
6.8284581667998455e-33
220
4.9303806576313232e-32
230
1
0
CIRCLE
5
103
100
AcDbEntity
8
0
100
AcDbCircle
10
44.999997576293254
20
39.99999744050784
30
0
40
6.4999999999999858
210
6.8284581667998455e-33
220
4.9303806576313232e-32
230
1
0
CIRCLE
5
104
100
AcDbEntity
8
0
100
AcDbCircle
10
44.999997576293254
20
149.99999744050783
30
0
40
6.7499999999999707
210
6.8284581667998264e-33
220
-2.7510372844244248e-48
230
1
0
CIRCLE
5
105
100
AcDbEntity
8
0
100
AcDbCircle
10
-145.0000024237068
20
-320.00000255949209
30
0
40
6.4999999999999858
210
6.8284581667998455e-33
220
4.9303806576313232e-32
230
1
0
CIRCLE
5
106
100
AcDbEntity
8
0
100
AcDbCircle
10
202.14285471915042
20
179.99999744050774
30
0
40
2.6999999999999957
210
6.828458166799825e-33
220
-2.7510372844244242e-48
230
1
0
CIRCLE
5
107
100
AcDbEntity
8
0
100
AcDbCircle
10
-112.1428595665639
20
179.99999744050791
30
0
40
2.7000000000000313
210
-1.7823445121356794e-32
220
7.1806784003078362e-48
230
1
0
CIRCLE
5
108
100
AcDbEntity
8
0
100
AcDbCircle
10
-175.00000242370689
20
3.3333307738412543
30
0
40
2.6999999999999602
210
6.8284581667998045e-33
220
-4.9303806576313238e-32
230
1
0
CIRCLE
5
109
100
AcDbEntity
8
0
100
AcDbCircle
10
13.571426147721866
20
179.99999744050783
30
-4.4408920985006262e-15
40
2.7000000000000313
210
-1.7823445121356794e-32
220
7.1806784003078362e-48
230
1
0
CIRCLE
5
110
100
AcDbEntity
8
0
100
AcDbCircle
10
-175.00000242370689
20
-55.555558115047639
30
4.4408920985006262e-15
40
2.6999999999999602
210
6.8284581667998045e-33
220
-4.9303806576313238e-32
230
1
0
CIRCLE
5
111
100
AcDbEntity
8
0
100
AcDbCircle
10
-175.00000242370675
20
62.222219662730197
30
0
40
2.6999999999999602
210
6.8284581667998045e-33
220
-4.9303806576313238e-32
230
1
0
CIRCLE
5
112
100
AcDbEntity
8
0
100
AcDbCircle
10
76.428569004864428
20
-350.00000255949226
30
4.4408920985006262e-15
40
2.7000000000000313
210
-1.7823445121356794e-32
220
7.1806784003078362e-48
230
1
0
CIRCLE
5
113
100
AcDbEntity
8
0
100
AcDbCircle
10
264.99999757629314
20
-173.33333589282557
30
-4.4408920985006262e-15
40
2.6999999999999957
210
6.828458166799825e-33
220
-2.7510372844244242e-48
230
1
0
CIRCLE
5
114
100
AcDbEntity
8
0
100
AcDbCircle
10
-112.14285956656411
20
-350.00000255949215
30
0
40
2.7000000000000313
210
-1.7823445121356794e-32
220
7.1806784003078362e-48
230
1
0
CIRCLE
5
115
100
AcDbEntity
8
0
100
AcDbCircle
10
202.14285471915019
20
-350.00000255949226
30
0
40
2.6999999999999957
210
6.828458166799825e-33
220
-2.7510372844244242e-48
230
1
0
CIRCLE
5
116
100
AcDbEntity
8
0
100
AcDbCircle
10
-49.285716709421052
20
179.99999744050785
30
-4.4408920985006262e-15
40
2.7000000000000313
210
-1.7823445121356794e-32
220
7.1806784003078362e-48
230
1
0
CIRCLE
5
117
100
AcDbEntity
8
0
100
AcDbCircle
10
264.99999757629325
20
179.99999744050771
30
-4.4408920985006262e-15
40
2.6999999999999957
210
6.828458166799825e-33
220
-2.7510372844244242e-48
230
1
0
CIRCLE
5
118
100
AcDbEntity
8
0
100
AcDbCircle
10
264.99999757629314
20
-114.44444700393672
30
-4.4408920985006262e-15
40
2.6999999999999957
210
6.828458166799825e-33
220
-2.7510372844244242e-48
230
1
0
CIRCLE
5
119
100
AcDbEntity
8
0
100
AcDbCircle
10
-175.00000242370689
20
-114.44444700393653
30
0
40
2.6999999999999602
210
6.8284581667998045e-33
220
-4.9303806576313238e-32
230
1
0
CIRCLE
5
120
100
AcDbEntity
8
0
100
AcDbCircle
10
264.9999975762932
20
62.222219662730026
30
0
40
2.6999999999999957
210
6.828458166799825e-33
220
-2.7510372844244242e-48
230
1
0
CIRCLE
5
121
100
AcDbEntity
8
0
100
AcDbCircle
10
264.99999757629314
20
-55.555558115047816
30
0
40
2.6999999999999957
210
6.828458166799825e-33
220
-2.7510372844244242e-48
230
1
0
CIRCLE
5
122
100
AcDbEntity
8
0
100
AcDbCircle
10
-175.00000242370675
20
179.99999744050791
30
0
40
2.6999999999999602
210
6.8284581667998045e-33
220
-4.9303806576313238e-32
230
1
0
CIRCLE
5
123
100
AcDbEntity
8
0
100
AcDbCircle
10
264.99999757629303
20
-350.00000255949232
30
0
40
2.6999999999999957
210
6.828458166799825e-33
220
-2.7510372844244242e-48
230
1
0
CIRCLE
5
124
100
AcDbEntity
8
0
100
AcDbCircle
10
139.28571186200736
20
-350.00000255949226
30
0
40
2.7000000000000313
210
-1.7823445121356794e-32
220
7.1806784003078362e-48
230
1
0
CIRCLE
5
125
100
AcDbEntity
8
0
100
AcDbCircle
10
-175.00000242370689
20
-173.33333589282535
30
0
40
2.6999999999999602
210
6.8284581667998045e-33
220
-4.9303806576313238e-32
230
1
0
CIRCLE
5
126
100
AcDbEntity
8
0
100
AcDbCircle
10
264.99999757629308
20
-232.22222478171449
30
0
40
2.6999999999999957
210
6.828458166799825e-33
220
-2.7510372844244242e-48
230
1
0
CIRCLE
5
127
100
AcDbEntity
8
0
100
AcDbCircle
10
264.9999975762932
20
121.11110855161886
30
0
40
2.6999999999999957
210
6.828458166799825e-33
220
-2.7510372844244242e-48
230
1
0
CIRCLE
5
128
100
AcDbEntity
8
0
100
AcDbCircle
10
13.571426147721652
20
-350.00000255949215
30
0
40
2.7000000000000313
210
-1.7823445121356794e-32
220
7.1806784003078362e-48
230
1
0
CIRCLE
5
129
100
AcDbEntity
8
0
100
AcDbCircle
10
139.28571186200756
20
179.9999974405078
30
0
40
2.7000000000000313
210
-1.7823445121356794e-32
220
7.1806784003078362e-48
230
1
0
CIRCLE
5
130
100
AcDbEntity
8
0
100
AcDbCircle
10
-49.285716709421266
20
-350.00000255949215
30
0
40
2.7000000000000313
210
-1.7823445121356794e-32
220
7.1806784003078362e-48
230
1
0
CIRCLE
5
131
100
AcDbEntity
8
0
100
AcDbCircle
10
-175.00000242370689
20
-291.11111367060323
30
0
40
2.6999999999999602
210
6.8284581667998045e-33
220
-4.9303806576313238e-32
230
1
0
CIRCLE
5
132
100
AcDbEntity
8
0
100
AcDbCircle
10
264.9999975762932
20
3.3333307738410767
30
0
40
2.6999999999999957
210
6.828458166799825e-33
220
-2.7510372844244242e-48
230
1
0
CIRCLE
5
133
100
AcDbEntity
8
0
100
AcDbCircle
10
264.99999757629308
20
-291.1111136706034
30
0
40
2.6999999999999957
210
6.828458166799825e-33
220
-2.7510372844244242e-48
230
1
0
CIRCLE
5
134
100
AcDbEntity
8
0
100
AcDbCircle
10
76.428569004864642
20
179.9999974405078
30
0
40
2.7000000000000313
210
-1.7823445121356794e-32
220
7.1806784003078362e-48
230
1
0
CIRCLE
5
135
100
AcDbEntity
8
0
100
AcDbCircle
10
-175.00000242370675
20
121.11110855161904
30
0
40
2.6999999999999602
210
6.8284581667998045e-33
220
-4.9303806576313238e-32
230
1
0
CIRCLE
5
136
100
AcDbEntity
8
0
100
AcDbCircle
10
-175.00000242370689
20
-232.22222478171429
30
0
40
2.6999999999999602
210
6.8284581667998045e-33
220
-4.9303806576313238e-32
230
1
0
CIRCLE
5
137
100
AcDbEntity
8
0
100
AcDbCircle
10
-175.00000242370703
20
-350.00000255949209
30
0
40
2.6999999999999602
210
6.8284581667998045e-33
220
-4.9303806576313238e-32
230
1
0
LWPOLYLINE
5
138
100
AcDbEntity
8
0
100
AcDbPolyline
90
4
70
1
43
0.0
10
-185.00000242370689
20
-360.00000255949209
10
274.99999757629297
20
-360.00000255949232
10
274.99999757629325
20
189.99999744050768
10
-185.00000242370675
20
189.99999744050794
0
ENDSEC
0
SECTION
2
OBJECTS
0
DICTIONARY
5
C
100
AcDbDictionary
3
ACAD_GROUP
350
D
3
ACAD_MLINESTYLE
350
17
0
DICTIONARY
5
D
100
AcDbDictionary
0
DICTIONARY
5
1A
330
C
100
AcDbDictionary
0
DICTIONARY
5
17
100
AcDbDictionary
0
ENDSEC
0
EOF
