0
SECTION
2
HEADER
9
$INSUNITS
70
4
9
$ACADVER
1
AC1014
9
$HANDSEED
5
FFFF
0
ENDSEC
0
SECTION
2
TABLES
0
TABLE
2
VPORT
5
8
100
AcDbSymbolTable
0
ENDTAB
0
TABLE
2
LTYPE
5
5
100
AcDbSymbolTable
0
LTYPE
5
14
100
AcDbSymbolTableRecord
100
AcDbLinetypeTableRecord
2
BYBLOCK
70
0
0
LTYPE
5
15
100
AcDbSymbolTableRecord
100
AcDbLinetypeTableRecord
2
BYLAYER
70
0
0
LTYPE
5
16
100
AcDbSymbolTableRecord
100
AcDbLinetypeTableRecord
2
DASHED
70
0
3
Dashed __ __ __ __ __ __ __ __ __ __ __ __ __ _
72
65
73
2
40
0.75
49
0.5
74
0
49
-0.25
74
0
0
ENDTAB
0
TABLE
2
LAYER
5
2
100
AcDbSymbolTable
70
3
0
LAYER
5
50
100
AcDbSymbolTableRecord
100
AcDbLayerTableRecord
2
1
70
0
62
7
6
DASHED
0
LAYER
5
51
100
AcDbSymbolTableRecord
100
AcDbLayerTableRecord
2
0
70
0
62
7
6
CONTINUOUS
0
ENDTAB
0
TABLE
2
STYLE
5
3
100
AcDbSymbolTable
70
1
0
STYLE
5
11
100
AcDbSymbolTableRecord
100
AcDbTextStyleTableRecord
2
STANDARD
70
0
0
ENDTAB
0
TABLE
2
VIEW
5
6
100
AcDbSymbolTable
70
0
0
ENDTAB
0
TABLE
2
UCS
5
7
100
AcDbSymbolTable
70
0
0
ENDTAB
0
TABLE
2
APPID
5
9
100
AcDbSymbolTable
70
2
0
APPID
5
12
100
AcDbSymbolTableRecord
100
AcDbRegAppTableRecord
2
ACAD
70
0
0
ENDTAB
0
TABLE
2
DIMSTYLE
5
A
100
AcDbSymbolTable
70
1
0
ENDTAB
0
TABLE
2
BLOCK_RECORD
5
1
100
AcDbSymbolTable
70
1
0
BLOCK_RECORD
5
1F
100
AcDbSymbolTableRecord
100
AcDbBlockTableRecord
2
*MODEL_SPACE
0
BLOCK_RECORD
5
1B
100
AcDbSymbolTableRecord
100
AcDbBlockTableRecord
2
*PAPER_SPACE
0
ENDTAB
0
ENDSEC
0
SECTION
2
BLOCKS
0
BLOCK
5
20
100
AcDbEntity
100
AcDbBlockBegin
2
*MODEL_SPACE
0
ENDBLK
5
21
100
AcDbEntity
100
AcDbBlockEnd
0
BLOCK
5
1C
100
AcDbEntity
100
AcDbBlockBegin
2
*PAPER_SPACE
0
ENDBLK
5
1D
100
AcDbEntity
100
AcDbBlockEnd
0
ENDSEC
0
SECTION
2
ENTITIES
0
LWPOLYLINE
5
100
100
AcDbEntity
8
0
100
AcDbPolyline
90
4
70
1
43
0.0
10
623.57863649436536
20
53.999577823759672
10
623.57863649435524
20
-66.000422176240335
10
403.57863649435524
20
-66.000422176221875
10
403.5786364943653
20
53.999577823778147
0
CIRCLE
5
101
100
AcDbEntity
8
0
100
AcDbCircle
10
419.29292220866159
20
179.99957782377686
30
0
40
2.7000000000000313
210
5.5511151243264561e-17
220
-2.9901324114504902e-29
230
1
0
CIRCLE
5
102
100
AcDbEntity
8
0
100
AcDbCircle
10
356.43577935151882
20
179.99957782378209
30
0
40
2.7000000000000313
210
5.5511151243264561e-17
220
-2.9901324114504902e-29
230
1
0
CIRCLE
5
103
100
AcDbEntity
8
0
100
AcDbCircle
10
607.86435078009026
20
179.999577823761
30
7.1054273576010019e-14
40
2.7000000000000313
210
5.5511151243264561e-17
220
-2.9901324114504902e-29
230
1
0
CIRCLE
5
104
100
AcDbEntity
8
0
100
AcDbCircle
10
670.72149363718859
20
-350.00042217624434
30
7.1054273576010019e-14
40
2.6999999999999957
210
1.2006742901410411e-26
220
-1.0074499886108362e-39
230
1
0
CIRCLE
5
105
100
AcDbEntity
8
0
100
AcDbCircle
10
482.15006506580448
20
179.99957782377155
30
0
40
2.7000000000000313
210
5.5511151243264561e-17
220
-2.9901324114504902e-29
230
1
0
CIRCLE
5
106
100
AcDbEntity
8
0
100
AcDbCircle
10
293.57863649437598
20
179.99957782378738
30
0
40
2.6999999999999602
210
5.5511151243264561e-17
220
-5.5144873081577285e-29
230
1
0
CIRCLE
5
107
100
AcDbEntity
8
0
100
AcDbCircle
10
545.00720792294715
20
179.99957782376629
30
7.1054273576010019e-14
40
2.7000000000000313
210
5.5511151243264561e-17
220
-2.9901324114504902e-29
230
1
0
CIRCLE
5
108
100
AcDbEntity
8
0
100
AcDbCircle
10
733.57863649433148
20
-350.00042217624957
30
0
40
2.6999999999999957
210
1.2006742901410411e-26
220
-1.0074499886108362e-39
230
1
0
CIRCLE
5
109
100
AcDbEntity
8
0
100
AcDbCircle
10
545.00720792290292
20
-350.00042217623377
30
0
40
2.7000000000000313
210
5.5511151243264561e-17
220
-2.9901324114504902e-29
230
1
0
CIRCLE
5
110
100
AcDbEntity
8
0
100
AcDbCircle
10
482.15006506576003
20
-350.00042217622848
30
0
40
2.7000000000000313
210
5.5511151243264561e-17
220
-2.9901324114504902e-29
230
1
0
CIRCLE
5
111
100
AcDbEntity
8
0
100
AcDbCircle
10
733.57863649436592
20
62.221800045972756
30
0
40
2.6999999999999957
210
1.2006742901410411e-26
220
-1.0074499886108362e-39
230
1
0
CIRCLE
5
112
100
AcDbEntity
8
0
100
AcDbCircle
10
293.57863649436121
20
3.3329111571207193
30
0
40
2.6999999999999602
210
5.5511151243264561e-17
220
-5.5144873081577285e-29
230
1
0
CIRCLE
5
113
100
AcDbEntity
8
0
100
AcDbCircle
10
733.57863649437081
20
121.1106889348616
30
0
40
2.6999999999999957
210
1.2006742901410411e-26
220
-1.0074499886108362e-39
230
1
0
CIRCLE
5
114
100
AcDbEntity
8
0
100
AcDbCircle
10
293.57863649436615
20
62.221800046009662
30
0
40
2.6999999999999602
210
5.5511151243264561e-17
220
-5.5144873081577285e-29
230
1
0
CIRCLE
5
115
100
AcDbEntity
8
0
100
AcDbCircle
10
733.57863649436104
20
3.3329111570838066
30
0
40
2.6999999999999957
210
1.2006742901410411e-26
220
-1.0074499886108362e-39
230
1
0
CIRCLE
5
116
100
AcDbEntity
8
0
100
AcDbCircle
10
293.5786364943562
20
-55.555977731768174
30
0
40
2.6999999999999602
210
5.5511151243264561e-17
220
-5.5144873081577285e-29
230
1
0
CIRCLE
5
117
100
AcDbEntity
8
0
100
AcDbCircle
10
293.57863649437104
20
121.11068893489852
30
7.1054273576010019e-14
40
2.6999999999999602
210
5.5511151243264561e-17
220
-5.5144873081577285e-29
230
1
0
CIRCLE
5
118
100
AcDbEntity
8
0
100
AcDbCircle
10
670.72149363723315
20
179.99957782375574
30
0
40
2.6999999999999957
210
1.2006742901410411e-26
220
-1.0074499886108362e-39
230
1
0
CIRCLE
5
119
100
AcDbEntity
8
0
100
AcDbCircle
10
607.8643507800457
20
-350.000422176239
30
0
40
2.7000000000000313
210
5.5511151243264561e-17
220
-2.9901324114504902e-29
230
1
0
CIRCLE
5
120
100
AcDbEntity
8
0
100
AcDbCircle
10
733.57863649437559
20
179.99957782375046
30
0
40
2.6999999999999957
210
1.2006742901410411e-26
220
-1.0074499886108362e-39
230
1
0
CIRCLE
5
121
100
AcDbEntity
8
0
100
AcDbCircle
10
733.57863649435603
20
-55.555977731805086
30
-7.1054273576010019e-14
40
2.6999999999999957
210
1.2006742901410411e-26
220
-1.0074499886108362e-39
230
1
0
CIRCLE
5
122
100
AcDbEntity
8
0
100
AcDbCircle
10
293.57863649435131
20
-114.44486662065707
30
7.1054273576010019e-14
40
2.6999999999999602
210
5.5511151243264561e-17
220
-5.5144873081577285e-29
230
1
0
CIRCLE
5
123
100
AcDbEntity
8
0
100
AcDbCircle
10
733.57863649435103
20
-114.44486662069397
30
7.1054273576010019e-14
40
2.6999999999999957
210
1.2006742901410411e-26
220
-1.0074499886108362e-39
230
1
0
CIRCLE
5
124
100
AcDbEntity
8
0
100
AcDbCircle
10
293.57863649434637
20
-173.33375550954588
30
0
40
2.6999999999999602
210
5.5511151243264561e-17
220
-5.5144873081577285e-29
230
1
0
CIRCLE
5
125
100
AcDbEntity
8
0
100
AcDbCircle
10
733.57863649434603
20
-173.33375550958283
30
0
40
2.6999999999999957
210
1.2006742901410411e-26
220
-1.0074499886108362e-39
230
1
0
CIRCLE
5
126
100
AcDbEntity
8
0
100
AcDbCircle
10
293.57863649434137
20
-232.22264439843482
30
0
40
2.6999999999999602
210
5.5511151243264561e-17
220
-5.5144873081577285e-29
230
1
0
CIRCLE
5
127
100
AcDbEntity
8
0
100
AcDbCircle
10
733.57863649434125
20
-232.22264439847177
30
-7.1054273576010019e-14
40
2.6999999999999957
210
1.2006742901410411e-26
220
-1.0074499886108362e-39
230
1
0
CIRCLE
5
128
100
AcDbEntity
8
0
100
AcDbCircle
10
293.57863649433648
20
-291.11153328732377
30
7.1054273576010019e-14
40
2.6999999999999602
210
5.5511151243264561e-17
220
-5.5144873081577285e-29
230
1
0
CIRCLE
5
129
100
AcDbEntity
8
0
100
AcDbCircle
10
733.57863649433637
20
-291.11153328736071
30
0
40
2.6999999999999957
210
1.2006742901410411e-26
220
-1.0074499886108362e-39
230
1
0
CIRCLE
5
130
100
AcDbEntity
8
0
100
AcDbCircle
10
293.57863649433148
20
-350.00042217621262
30
0
40
2.6999999999999602
210
5.5511151243264561e-17
220
-5.5144873081577285e-29
230
1
0
CIRCLE
5
131
100
AcDbEntity
8
0
100
AcDbCircle
10
356.43577935147437
20
-350.00042217621797
30
0
40
2.7000000000000313
210
5.5511151243264561e-17
220
-2.9901324114504902e-29
230
1
0
CIRCLE
5
132
100
AcDbEntity
8
0
100
AcDbCircle
10
419.2929222086172
20
-350.0004221762232
30
0
40
2.7000000000000313
210
5.5511151243264561e-17
220
-2.9901324114504902e-29
230
1
0
LWPOLYLINE
5
133
100
AcDbEntity
8
0
100
AcDbPolyline
90
4
70
1
43
0.0
10
283.57863649433085
20
-360.00042217621177
10
743.57863649433057
20
-360.00042217625037
10
743.57863649437695
20
189.99957782374958
10
283.57863649437684
20
189.99957782378826
0
ENDSEC
0
SECTION
2
OBJECTS
0
DICTIONARY
5
C
100
AcDbDictionary
3
ACAD_GROUP
350
D
3
ACAD_MLINESTYLE
350
17
0
DICTIONARY
5
D
100
AcDbDictionary
0
DICTIONARY
5
1A
330
C
100
AcDbDictionary
0
DICTIONARY
5
17
100
AcDbDictionary
0
ENDSEC
0
EOF
