0
SECTION
2
HEADER
9
$INSUNITS
70
4
9
$ACADVER
1
AC1014
9
$HANDSEED
5
FFFF
0
ENDSEC
0
SECTION
2
TABLES
0
TABLE
2
VPORT
5
8
100
AcDbSymbolTable
0
ENDTAB
0
TABLE
2
LTYPE
5
5
100
AcDbSymbolTable
0
LTYPE
5
14
100
AcDbSymbolTableRecord
100
AcDbLinetypeTableRecord
2
BYBLOCK
70
0
0
LTYPE
5
15
100
AcDbSymbolTableRecord
100
AcDbLinetypeTableRecord
2
BYLAYER
70
0
0
LTYPE
5
16
100
AcDbSymbolTableRecord
100
AcDbLinetypeTableRecord
2
DASHED
70
0
3
Dashed __ __ __ __ __ __ __ __ __ __ __ __ __ _
72
65
73
2
40
0.75
49
0.5
74
0
49
-0.25
74
0
0
ENDTAB
0
TABLE
2
LAYER
5
2
100
AcDbSymbolTable
70
3
0
LAYER
5
50
100
AcDbSymbolTableRecord
100
AcDbLayerTableRecord
2
1
70
0
62
7
6
DASHED
0
LAYER
5
51
100
AcDbSymbolTableRecord
100
AcDbLayerTableRecord
2
0
70
0
62
7
6
CONTINUOUS
0
ENDTAB
0
TABLE
2
STYLE
5
3
100
AcDbSymbolTable
70
1
0
STYLE
5
11
100
AcDbSymbolTableRecord
100
AcDbTextStyleTableRecord
2
STANDARD
70
0
0
ENDTAB
0
TABLE
2
VIEW
5
6
100
AcDbSymbolTable
70
0
0
ENDTAB
0
TABLE
2
UCS
5
7
100
AcDbSymbolTable
70
0
0
ENDTAB
0
TABLE
2
APPID
5
9
100
AcDbSymbolTable
70
2
0
APPID
5
12
100
AcDbSymbolTableRecord
100
AcDbRegAppTableRecord
2
ACAD
70
0
0
ENDTAB
0
TABLE
2
DIMSTYLE
5
A
100
AcDbSymbolTable
70
1
0
ENDTAB
0
TABLE
2
BLOCK_RECORD
5
1
100
AcDbSymbolTable
70
1
0
BLOCK_RECORD
5
1F
100
AcDbSymbolTableRecord
100
AcDbBlockTableRecord
2
*MODEL_SPACE
0
BLOCK_RECORD
5
1B
100
AcDbSymbolTableRecord
100
AcDbBlockTableRecord
2
*PAPER_SPACE
0
ENDTAB
0
ENDSEC
0
SECTION
2
BLOCKS
0
BLOCK
5
20
100
AcDbEntity
100
AcDbBlockBegin
2
*MODEL_SPACE
0
ENDBLK
5
21
100
AcDbEntity
100
AcDbBlockEnd
0
BLOCK
5
1C
100
AcDbEntity
100
AcDbBlockBegin
2
*PAPER_SPACE
0
ENDBLK
5
1D
100
AcDbEntity
100
AcDbBlockEnd
0
ENDSEC
0
SECTION
2
ENTITIES
0
CIRCLE
5
100
100
AcDbEntity
8
0
100
AcDbCircle
10
-125.71428329057895
20
179.99999744050743
30
0
40
2.7000000000000313
210
-4.5159032541717738e-47
220
-1.3824707167319981e-63
230
1
0
CIRCLE
5
101
100
AcDbEntity
8
0
100
AcDbCircle
10
-439.99999757629325
20
179.99999744050743
30
0
40
2.6999999999999957
210
-1.327401865620188e-46
220
-4.0636260461516307e-63
230
1
0
CIRCLE
5
102
100
AcDbEntity
8
0
100
AcDbCircle
10
-439.99999757629325
20
-114.444447003937
30
0
40
2.6999999999999957
210
-1.327401865620188e-46
220
-4.0636260461516307e-63
230
1
0
CIRCLE
5
103
100
AcDbEntity
8
0
100
AcDbCircle
10
2.42370674641279e-06
20
-350.0000025594926
30
0
40
2.6999999999999602
210
-1.3311752562897183e-46
220
1.2325951644078309e-32
230
1
0
CIRCLE
5
104
100
AcDbEntity
8
0
100
AcDbCircle
10
-111.99999757629328
20
28.999997440507457
30
0
40
2.7000000000000313
210
-4.5159032541717738e-47
220
-1.3824707167319981e-63
230
1
0
CIRCLE
5
105
100
AcDbEntity
8
0
100
AcDbCircle
10
-62.857140433436101
20
179.99999744050746
30
0
40
2.7000000000000313
210
-4.5159032541717738e-47
220
-1.3824707167319981e-63
230
1
0
CIRCLE
5
106
100
AcDbEntity
8
0
100
AcDbCircle
10
2.4237067464127904e-06
20
3.333330773840828
30
0
40
2.6999999999999602
210
-1.3311752562897183e-46
220
1.2325951644078309e-32
230
1
0
CIRCLE
5
107
100
AcDbEntity
8
0
100
AcDbCircle
10
-439.99999757629325
20
62.222219662729721
30
0
40
2.6999999999999957
210
-1.327401865620188e-46
220
-4.0636260461516307e-63
230
1
0
CIRCLE
5
108
100
AcDbEntity
8
0
100
AcDbCircle
10
-439.99999757629325
20
-173.33333589282586
30
0
40
2.6999999999999957
210
-1.327401865620188e-46
220
-4.0636260461516307e-63
230
1
0
CIRCLE
5
109
100
AcDbEntity
8
0
100
AcDbCircle
10
-183.99999757629325
20
28.999997440507457
30
0
40
2.7000000000000313
210
-4.5159032541717738e-47
220
-1.3824707167319981e-63
230
1
0
CIRCLE
5
110
100
AcDbEntity
8
0
100
AcDbCircle
10
-62.857140433436101
20
-350.0000025594926
30
0
40
2.7000000000000313
210
-4.5159032541717738e-47
220
-1.3824707167319981e-63
230
1
0
CIRCLE
5
111
100
AcDbEntity
8
0
100
AcDbCircle
10
-188.57142614772187
20
179.99999744050743
30
0
40
2.7000000000000313
210
-4.5159032541717738e-47
220
-1.3824707167319981e-63
230
1
0
CIRCLE
5
112
100
AcDbEntity
8
0
100
AcDbCircle
10
2.4237067464127904e-06
20
-114.44444700393696
30
0
40
2.6999999999999602
210
-1.3311752562897183e-46
220
1.2325951644078309e-32
230
1
0
CIRCLE
5
113
100
AcDbEntity
8
0
100
AcDbCircle
10
-377.14285471915042
20
179.99999744050743
30
0
40
2.6999999999999957
210
-1.327401865620188e-46
220
-4.0636260461516307e-63
230
1
0
CIRCLE
5
114
100
AcDbEntity
8
0
100
AcDbCircle
10
2.4237067464127904e-06
20
-55.555558115048065
30
0
40
2.6999999999999602
210
-1.3311752562897183e-46
220
1.2325951644078309e-32
230
1
0
CIRCLE
5
115
100
AcDbEntity
8
0
100
AcDbCircle
10
-251.42856900486464
20
-350.0000025594926
30
0
40
2.7000000000000313
210
-4.5159032541717738e-47
220
-1.3824707167319981e-63
230
1
0
CIRCLE
5
116
100
AcDbEntity
8
0
100
AcDbCircle
10
-377.14285471915042
20
-350.0000025594926
30
0
40
2.6999999999999957
210
-1.327401865620188e-46
220
-4.0636260461516307e-63
230
1
0
CIRCLE
5
117
100
AcDbEntity
8
0
100
AcDbCircle
10
-327.99999757629325
20
28.999997440507457
30
0
40
2.6999999999999957
210
-1.327401865620188e-46
220
-4.0636260461516307e-63
230
1
0
CIRCLE
5
118
100
AcDbEntity
8
0
100
AcDbCircle
10
2.4237067464127904e-06
20
62.222219662729742
30
0
40
2.6999999999999602
210
-1.3311752562897183e-46
220
1.2325951644078309e-32
230
1
0
CIRCLE
5
119
100
AcDbEntity
8
0
100
AcDbCircle
10
-39.999997576293254
20
28.999997440507457
30
0
40
2.7000000000000313
210
-4.5159032541717738e-47
220
-1.3824707167319981e-63
230
1
0
CIRCLE
5
120
100
AcDbEntity
8
0
100
AcDbCircle
10
-439.99999757629325
20
-55.5555581150481
30
0
40
2.6999999999999957
210
-1.327401865620188e-46
220
-4.0636260461516307e-63
230
1
0
CIRCLE
5
121
100
AcDbEntity
8
0
100
AcDbCircle
10
2.4237067464127904e-06
20
179.99999744050746
30
0
40
2.6999999999999602
210
-1.3311752562897183e-46
220
1.2325951644078309e-32
230
1
0
CIRCLE
5
122
100
AcDbEntity
8
0
100
AcDbCircle
10
-439.99999757629325
20
-350.0000025594926
30
0
40
2.6999999999999957
210
-1.327401865620188e-46
220
-4.0636260461516307e-63
230
1
0
CIRCLE
5
123
100
AcDbEntity
8
0
100
AcDbCircle
10
-314.28571186200759
20
-350.0000025594926
30
0
40
2.7000000000000313
210
-4.5159032541717738e-47
220
-1.3824707167319981e-63
230
1
0
CIRCLE
5
124
100
AcDbEntity
8
0
100
AcDbCircle
10
2.4237067464127904e-06
20
-173.33333589282586
30
0
40
2.6999999999999602
210
-1.3311752562897183e-46
220
1.2325951644078309e-32
230
1
0
CIRCLE
5
125
100
AcDbEntity
8
0
100
AcDbCircle
10
-439.99999757629325
20
-232.22222478171477
30
0
40
2.6999999999999957
210
-1.327401865620188e-46
220
-4.0636260461516307e-63
230
1
0
CIRCLE
5
126
100
AcDbEntity
8
0
100
AcDbCircle
10
-439.99999757629325
20
121.11110855161857
30
0
40
2.6999999999999957
210
-1.327401865620188e-46
220
-4.0636260461516307e-63
230
1
0
CIRCLE
5
127
100
AcDbEntity
8
0
100
AcDbCircle
10
-188.57142614772187
20
-350.0000025594926
30
0
40
2.7000000000000313
210
-4.5159032541717738e-47
220
-1.3824707167319981e-63
230
1
0
CIRCLE
5
128
100
AcDbEntity
8
0
100
AcDbCircle
10
-314.28571186200759
20
179.99999744050743
30
0
40
2.7000000000000313
210
-4.5159032541717738e-47
220
-1.3824707167319981e-63
230
1
0
CIRCLE
5
129
100
AcDbEntity
8
0
100
AcDbCircle
10
-125.71428329057895
20
-350.0000025594926
30
0
40
2.7000000000000313
210
-4.5159032541717738e-47
220
-1.3824707167319981e-63
230
1
0
CIRCLE
5
130
100
AcDbEntity
8
0
100
AcDbCircle
10
2.42370674641279e-06
20
-291.11111367060369
30
0
40
2.6999999999999602
210
-1.3311752562897183e-46
220
1.2325951644078309e-32
230
1
0
CIRCLE
5
131
100
AcDbEntity
8
0
100
AcDbCircle
10
-439.99999757629325
20
3.3333307738407925
30
0
40
2.6999999999999957
210
-1.327401865620188e-46
220
-4.0636260461516307e-63
230
1
0
CIRCLE
5
132
100
AcDbEntity
8
0
100
AcDbCircle
10
-439.99999757629325
20
-291.11111367060369
30
0
40
2.6999999999999957
210
-1.327401865620188e-46
220
-4.0636260461516307e-63
230
1
0
CIRCLE
5
133
100
AcDbEntity
8
0
100
AcDbCircle
10
-399.99999757629325
20
28.999997440507439
30
0
40
2.6999999999999957
210
-1.327401865620188e-46
220
-4.0636260461516307e-63
230
1
0
CIRCLE
5
134
100
AcDbEntity
8
0
100
AcDbCircle
10
-251.42856900486464
20
179.99999744050743
30
0
40
2.7000000000000313
210
-4.5159032541717738e-47
220
-1.3824707167319981e-63
230
1
0
CIRCLE
5
135
100
AcDbEntity
8
0
100
AcDbCircle
10
-255.99999757629325
20
28.999997440507457
30
0
40
2.7000000000000313
210
-4.5159032541717738e-47
220
-1.3824707167319981e-63
230
1
0
CIRCLE
5
136
100
AcDbEntity
8
0
100
AcDbCircle
10
2.4237067464127904e-06
20
121.1111085516186
30
0
40
2.6999999999999602
210
-1.3311752562897183e-46
220
1.2325951644078309e-32
230
1
0
CIRCLE
5
137
100
AcDbEntity
8
0
100
AcDbCircle
10
2.4237067464127904e-06
20
-232.22222478171477
30
0
40
2.6999999999999602
210
-1.3311752562897183e-46
220
1.2325951644078309e-32
230
1
0
LWPOLYLINE
5
138
100
AcDbEntity
8
0
100
AcDbPolyline
90
4
70
1
43
0.0
10
-449.99999757629325
20
-360.0000025594926
10
10.000002423706604
20
-360.0000025594926
10
10.000002423706729
20
189.9999974405074
10
-449.99999757629325
20
189.99999744050743
0
ENDSEC
0
SECTION
2
OBJECTS
0
DICTIONARY
5
C
100
AcDbDictionary
3
ACAD_GROUP
350
D
3
ACAD_MLINESTYLE
350
17
0
DICTIONARY
5
D
100
AcDbDictionary
0
DICTIONARY
5
1A
330
C
100
AcDbDictionary
0
DICTIONARY
5
17
100
AcDbDictionary
0
ENDSEC
0
EOF
