0
SECTION
2
HEADER
9
$INSUNITS
70
4
9
$ACADVER
1
AC1014
9
$HANDSEED
5
FFFF
0
ENDSEC
0
SECTION
2
TABLES
0
TABLE
2
VPORT
5
8
100
AcDbSymbolTable
0
ENDTAB
0
TABLE
2
LTYPE
5
5
100
AcDbSymbolTable
0
LTYPE
5
14
100
AcDbSymbolTableRecord
100
AcDbLinetypeTableRecord
2
BYBLOCK
70
0
0
LTYPE
5
15
100
AcDbSymbolTableRecord
100
AcDbLinetypeTableRecord
2
BYLAYER
70
0
0
LTYPE
5
16
100
AcDbSymbolTableRecord
100
AcDbLinetypeTableRecord
2
DASHED
70
0
3
Dashed __ __ __ __ __ __ __ __ __ __ __ __ __ _
72
65
73
2
40
0.75
49
0.5
74
0
49
-0.25
74
0
0
ENDTAB
0
TABLE
2
LAYER
5
2
100
AcDbSymbolTable
70
3
0
LAYER
5
50
100
AcDbSymbolTableRecord
100
AcDbLayerTableRecord
2
1
70
0
62
7
6
DASHED
0
LAYER
5
51
100
AcDbSymbolTableRecord
100
AcDbLayerTableRecord
2
0
70
0
62
7
6
CONTINUOUS
0
ENDTAB
0
TABLE
2
STYLE
5
3
100
AcDbSymbolTable
70
1
0
STYLE
5
11
100
AcDbSymbolTableRecord
100
AcDbTextStyleTableRecord
2
STANDARD
70
0
0
ENDTAB
0
TABLE
2
VIEW
5
6
100
AcDbSymbolTable
70
0
0
ENDTAB
0
TABLE
2
UCS
5
7
100
AcDbSymbolTable
70
0
0
ENDTAB
0
TABLE
2
APPID
5
9
100
AcDbSymbolTable
70
2
0
APPID
5
12
100
AcDbSymbolTableRecord
100
AcDbRegAppTableRecord
2
ACAD
70
0
0
ENDTAB
0
TABLE
2
DIMSTYLE
5
A
100
AcDbSymbolTable
70
1
0
ENDTAB
0
TABLE
2
BLOCK_RECORD
5
1
100
AcDbSymbolTable
70
1
0
BLOCK_RECORD
5
1F
100
AcDbSymbolTableRecord
100
AcDbBlockTableRecord
2
*MODEL_SPACE
0
BLOCK_RECORD
5
1B
100
AcDbSymbolTableRecord
100
AcDbBlockTableRecord
2
*PAPER_SPACE
0
ENDTAB
0
ENDSEC
0
SECTION
2
BLOCKS
0
BLOCK
5
20
100
AcDbEntity
100
AcDbBlockBegin
2
*MODEL_SPACE
0
ENDBLK
5
21
100
AcDbEntity
100
AcDbBlockEnd
0
BLOCK
5
1C
100
AcDbEntity
100
AcDbBlockBegin
2
*PAPER_SPACE
0
ENDBLK
5
1D
100
AcDbEntity
100
AcDbBlockEnd
0
ENDSEC
0
SECTION
2
ENTITIES
0
LWPOLYLINE
5
100
100
AcDbEntity
8
0
100
AcDbPolyline
90
16
70
1
43
0.0
10
34.399986314831992
20
-10.000011411538452
10
34.399986314831914
20
10.599988588461539
10
55.599986314831952
20
10.599988588461501
10
55.599986314832037
20
-10.000011411538491
10
254.3999863148322
20
-10.000011411538427
10
254.3999863148322
20
10.599988588461539
10
274.9999863148322
20
10.599988588461501
10
274.9999863148322
20
429.39998858846081
10
254.3999863148322
20
429.39998858846087
10
254.3999863148322
20
449.99998858846084
10
-164.40001368516747
20
449.99998858846078
10
-164.40001368516761
20
429.39998858846081
10
-185.00001368516757
20
429.39998858846081
10
-185.00001368516746
20
10.5999885884615
10
-164.40001368516749
20
10.59998858846143
10
-164.40001368516747
20
-10.000011411538491
0
CIRCLE
5
101
100
AcDbEntity
8
0
100
AcDbCircle
10
-175.00001368516749
20
62.857131445604182
30
0
40
2.699999999999994
210
0
220
-0
230
1
0
CIRCLE
5
102
100
AcDbEntity
8
0
100
AcDbCircle
10
-175.00001368516752
20
188.57141715988979
30
0
40
2.699999999999994
210
0
220
-0
230
1
0
CIRCLE
5
103
100
AcDbEntity
8
0
100
AcDbCircle
10
264.9999863148322
20
125.71427430274703
30
0
40
2.6999999999999584
210
0
220
-0
230
1
0
CIRCLE
5
104
100
AcDbEntity
8
0
100
AcDbCircle
10
202.14284345768931
20
-1.1411538523020681e-05
30
0
40
2.6999999999999584
210
0
220
-0
230
1
0
CIRCLE
5
105
100
AcDbEntity
8
0
100
AcDbCircle
10
-112.14287082802464
20
-1.1411538523020683e-05
30
0
40
2.7000000000000295
210
4.9303806576313238e-32
220
6.0379751544149579e-48
230
1
0
CIRCLE
5
106
100
AcDbEntity
8
0
100
AcDbCircle
10
139.28570060054659
20
-1.1411538523020681e-05
30
0
40
2.6999999999999584
210
0
220
-0
230
1
0
CIRCLE
5
107
100
AcDbEntity
8
0
100
AcDbCircle
10
-175.00001368516752
20
125.71427430274703
30
0
40
2.699999999999994
210
0
220
-0
230
1
0
CIRCLE
5
108
100
AcDbEntity
8
0
100
AcDbCircle
10
-175.00001368516752
20
251.42856001703248
30
0
40
2.699999999999994
210
0
220
-0
230
1
0
CIRCLE
5
109
100
AcDbEntity
8
0
100
AcDbCircle
10
-175.00001368516752
20
314.28570287417523
30
0
40
2.699999999999994
210
0
220
-0
230
1
0
CIRCLE
5
110
100
AcDbEntity
8
0
100
AcDbCircle
10
264.9999863148322
20
188.57141715988979
30
0
40
2.6999999999999584
210
0
220
-0
230
1
0
CIRCLE
5
111
100
AcDbEntity
8
0
100
AcDbCircle
10
264.9999863148322
20
251.42856001703254
30
0
40
2.6999999999999584
210
0
220
-0
230
1
0
CIRCLE
5
112
100
AcDbEntity
8
0
100
AcDbCircle
10
264.9999863148322
20
62.857131445604182
30
0
40
2.6999999999999584
210
0
220
-0
230
1
0
CIRCLE
5
113
100
AcDbEntity
8
0
100
AcDbCircle
10
-49.285727970881865
20
-1.1411538523020681e-05
30
0
40
2.6999999999999584
210
0
220
-0
230
1
0
CIRCLE
5
114
100
AcDbEntity
8
0
100
AcDbCircle
10
13.571414886260911
20
439.99998858846078
30
0
40
2.6999999999999584
210
0
220
-0
230
1
0
CIRCLE
5
115
100
AcDbEntity
8
0
100
AcDbCircle
10
76.428557743403687
20
439.99998858846078
30
0
40
2.6999999999999584
210
0
220
-0
230
1
0
CIRCLE
5
116
100
AcDbEntity
8
0
100
AcDbCircle
10
139.28570060054653
20
439.99998858846078
30
0
40
2.6999999999999584
210
0
220
-0
230
1
0
CIRCLE
5
117
100
AcDbEntity
8
0
100
AcDbCircle
10
-49.285727970881936
20
439.99998858846078
30
0
40
2.6999999999999584
210
0
220
-0
230
1
0
CIRCLE
5
118
100
AcDbEntity
8
0
100
AcDbCircle
10
264.9999863148322
20
314.28570287417534
30
0
40
2.6999999999999584
210
0
220
-0
230
1
0
CIRCLE
5
119
100
AcDbEntity
8
0
100
AcDbCircle
10
264.99998631483209
20
389.60373569612665
30
0
40
2.6999999999999584
210
0
220
-0
230
1
0
CIRCLE
5
120
100
AcDbEntity
8
0
100
AcDbCircle
10
244.91624055863483
20
439.99998858846089
30
0
40
2.6999999999999584
210
0
220
-0
230
1
0
CIRCLE
5
121
100
AcDbEntity
8
0
100
AcDbCircle
10
264.99998631483209
20
415.80770629465178
30
0
40
2.6999999999999584
210
0
220
-0
230
1
0
CIRCLE
5
122
100
AcDbEntity
8
0
100
AcDbCircle
10
215.60095392985232
20
439.99998858846089
30
0
40
2.6999999999999584
210
0
220
-0
230
1
0
CIRCLE
5
123
100
AcDbEntity
8
0
100
AcDbCircle
10
232.9999863148322
20
407.99998858846095
30
0
40
12.999999999999961
210
4.93038065763132e-32
220
3.9443045261050599e-31
230
1
0
CIRCLE
5
124
100
AcDbEntity
8
0
100
AcDbCircle
10
-175.00001368516766
20
389.60373569612671
30
0
40
2.699999999999994
210
0
220
-0
230
1
0
CIRCLE
5
125
100
AcDbEntity
8
0
100
AcDbCircle
10
-125.60098130018801
20
439.99998858846078
30
0
40
2.6999999999999584
210
0
220
-0
230
1
0
CIRCLE
5
126
100
AcDbEntity
8
0
100
AcDbCircle
10
-175.00001368516763
20
415.80770629465178
30
0
40
2.699999999999994
210
0
220
-0
230
1
0
CIRCLE
5
127
100
AcDbEntity
8
0
100
AcDbCircle
10
-154.91626792897029
20
439.99998858846084
30
0
40
2.699999999999994
210
0
220
-0
230
1
0
CIRCLE
5
128
100
AcDbEntity
8
0
100
AcDbCircle
10
-143.0000136851678
20
407.99998858846089
30
0
40
12.999999999999998
210
4.9303806576313194e-32
220
3.9443045261050599e-31
230
1
0
CIRCLE
5
129
100
AcDbEntity
8
0
100
AcDbCircle
10
70.999986314832597
20
-1.1411538380912134e-05
30
0
40
2.7000000000000295
210
4.9303806576313238e-32
220
6.0379751544149579e-48
230
1
0
CIRCLE
5
130
100
AcDbEntity
8
0
100
AcDbCircle
10
18.999986314832285
20
-1.1411538380912134e-05
30
0
40
2.7000000000000295
210
4.9303806576313238e-32
220
6.0379751544149579e-48
230
1
0
CIRCLE
5
131
100
AcDbEntity
8
0
100
AcDbCircle
10
44.999986314832512
20
39.899988588461781
30
0
40
13.000000000000105
210
0
220
-0
230
1
0
CIRCLE
5
132
100
AcDbEntity
8
0
100
AcDbCircle
10
217.49998631483194
20
392.49998858846072
30
0
40
1.8499999999999925
210
-6.3947659298010164e-46
220
7.8886090522101198e-31
230
1
0
CIRCLE
5
133
100
AcDbEntity
8
0
100
AcDbCircle
10
248.49998631483174
20
392.49998858846078
30
0
40
1.7499999999999769
210
4.9303806576313238e-32
220
3.9967287061256352e-47
230
1
0
CIRCLE
5
134
100
AcDbEntity
8
0
100
AcDbCircle
10
217.49998631483194
20
423.49998858846072
30
0
40
1.8499999999999748
210
-3.197382964900507e-46
220
3.944304526105059e-31
230
1
0
CIRCLE
5
135
100
AcDbEntity
8
0
100
AcDbCircle
10
248.49998631483174
20
423.49998858846072
30
0
40
1.8499999999999748
210
-3.197382964900507e-46
220
3.944304526105059e-31
230
1
0
CIRCLE
5
136
100
AcDbEntity
8
0
100
AcDbCircle
10
-127.50001368516777
20
392.49998858846089
30
0
40
1.8499999999999748
210
-9.8607613152626476e-32
220
2.0202829684105463e-47
230
1
0
CIRCLE
5
137
100
AcDbEntity
8
0
100
AcDbCircle
10
-158.50001368516783
20
392.49998858846089
30
0
40
1.8499999999999748
210
-9.8607613152626476e-32
220
2.0202829684105463e-47
230
1
0
CIRCLE
5
138
100
AcDbEntity
8
0
100
AcDbCircle
10
-127.50001368516777
20
423.49998858846095
30
0
40
1.8499999999999748
210
-9.8607613152626476e-32
220
2.0202829684105463e-47
230
1
0
CIRCLE
5
139
100
AcDbEntity
8
0
100
AcDbCircle
10
-158.50001368516774
20
423.49998858846095
30
0
40
1.7499999999999947
210
0
220
-0
230
1
0
CIRCLE
5
140
100
AcDbEntity
8
0
100
AcDbCircle
10
60.499986314832555
20
55.399988588461895
30
0
40
1.8499999999999837
210
-4.9303806576313632e-32
220
3.9443045261050586e-31
230
1
0
CIRCLE
5
141
100
AcDbEntity
8
0
100
AcDbCircle
10
60.499986314832626
20
24.399988588462023
30
0
40
1.8499999999999837
210
-4.9303806576313632e-32
220
3.9443045261050586e-31
230
1
0
CIRCLE
5
142
100
AcDbEntity
8
0
100
AcDbCircle
10
29.49998631483254
20
55.399988588461895
30
0
40
1.8499999999999837
210
-4.9303806576313632e-32
220
3.9443045261050586e-31
230
1
0
CIRCLE
5
143
100
AcDbEntity
8
0
100
AcDbCircle
10
29.499986314832682
20
24.399988588462023
30
0
40
1.7499999999999769
210
0
220
-0
230
1
0
ENDSEC
0
SECTION
2
OBJECTS
0
DICTIONARY
5
C
100
AcDbDictionary
3
ACAD_GROUP
350
D
3
ACAD_MLINESTYLE
350
17
0
DICTIONARY
5
D
100
AcDbDictionary
0
DICTIONARY
5
1A
330
C
100
AcDbDictionary
0
DICTIONARY
5
17
100
AcDbDictionary
0
ENDSEC
0
EOF
